C:\GBW_MyPrograms\KinderuniversiteitApp\Resultaten\Ellis\Volwassenen\Volwassenen_v1.mot
version=1
nRows=6
nColumns=29
inDegrees=yes
endheader
                time	         pelvis_tilt	           pelvis_tx	           pelvis_ty	       hip_flexion_l	       hip_flexion_r	        knee_angle_l	        knee_angle_r	       ankle_angle_l	       ankle_angle_r	    lumbar_extension	hamstrings_r/activation	bifemsh_r/activation	glut_max_r/activation	iliopsoas_r/activation	rect_fem_r/activation	  vasti_r/activation	gastroc_r/activation	 soleus_r/activation	tib_ant_r/activation	hamstrings_l/activation	bifemsh_l/activation	glut_max_l/activation	iliopsoas_l/activation	rect_fem_l/activation	  vasti_l/activation	gastroc_l/activation	 soleus_l/activation	tib_ant_l/activation	
          0.52052153	         -7.90842808	          0.62462584	          1.02296313	         28.04681692	        -12.67086327	        -17.14381959	         -6.37417717	          2.87881165	         -6.66901341	          1.10397008	          0.05000000	          0.11898191	          0.05000000	          0.56581047	          0.05000000	          0.05000000	          0.21745841	          0.31289084	          0.05000000	          0.21175125	          0.05000000	          0.05000000	          0.05867535	          0.07091058	          0.07400417	          0.05379711	          0.05867535	          0.19988474	
          0.53093196	         -7.89717740	          0.64047807	          1.02123548	         27.37298352	        -12.18420593	        -16.90571843	         -8.81345652	          2.79466301	         -7.18054669	          1.43811151	          0.05000000	          0.10139002	          0.05000000	          0.50070417	          0.05000000	          0.05000000	          0.18530642	          0.26957556	          0.05000000	          0.18975060	          0.05000000	          0.05892808	          0.05000000	          0.06042620	          0.10661084	          0.05000000	          0.05000000	          0.22241541	
          0.54134239	         -7.88218508	          0.65666595	          1.01943656	         26.64166189	        -11.54090404	        -17.21677335	        -11.53819712	          2.95591974	         -7.87495543	          1.80648865	          0.05000000	          0.08639914	          0.05000000	          0.42667329	          0.05000000	          0.05000000	          0.15790821	          0.22971786	          0.05000000	          0.16169530	          0.06885594	          0.10801661	          0.05000000	          0.05149198	          0.13406872	          0.05000000	          0.06223429	          0.19758966	
          0.55175282	         -7.86670332	          0.67296477	          1.01774013	         25.86678105	        -10.71689376	        -17.66050395	        -14.52861324	          3.55794569	         -8.88161325	          2.18757762	          0.05000000	          0.07362473	          0.07946839	          0.36358814	          0.05000000	          0.05000000	          0.13456093	          0.19575327	          0.05000000	          0.13778808	          0.05867535	          0.13913235	          0.05000000	          0.05000000	          0.18811943	          0.05000000	          0.10067685	          0.16837533	
          0.56216325	         -7.85437320	          0.68901140	          1.01646801	         25.16507415	         -9.69021596	        -18.24592238	        -17.74577251	          4.57353752	        -10.26006135	          2.54446776	          0.05000000	          0.06273905	          0.06885594	          0.30983035	          0.05000000	          0.05037166	          0.11466562	          0.16681046	          0.20216657	          0.11741563	          0.05000000	          0.19510395	          0.05000000	          0.05000000	          0.25195297	          0.05000000	          0.14731627	          0.14348044	
          0.57257368	         -7.84757991	          0.70450979	          1.01573425	         24.55082001	         -8.47693347	        -18.90640012	        -21.12703759	          5.52277509	        -11.44852197	          2.84687846	          0.05000000	          0.05346286	          0.05867535	          0.26402084	          0.05867535	          0.05000000	          0.09771190	          0.14214694	          0.20150243	          0.10005531	          0.05000000	          0.18895675	          0.05000000	          0.05000000	          0.29895875	          0.05000000	          0.19527313	          0.12226635	
